<svg xmlns="http://www.w3.org/2000/svg" viewBox="0 0 1180 820" font-family="Helvetica, Arial, sans-serif">
  <defs>
    <marker id="arr" viewBox="0 0 10 10" refX="9" refY="5" markerWidth="7" markerHeight="7" orient="auto-start-reverse">
      <path d="M0,0 L10,5 L0,10 z" fill="#b45309"/>
    </marker>
    <marker id="arrb" viewBox="0 0 10 10" refX="9" refY="5" markerWidth="7" markerHeight="7" orient="auto-start-reverse">
      <path d="M0,0 L10,5 L0,10 z" fill="#1f3a4d"/>
    </marker>
    <pattern id="hdpe" width="8" height="8" patternUnits="userSpaceOnUse" patternTransform="rotate(45)">
      <line x1="0" y1="0" x2="0" y2="8" stroke="#9fb4c0" stroke-width="1"/>
    </pattern>
  </defs>
  <style>
    .out { stroke:#1f3a4d; stroke-width:1.8; fill:#ffffff }
    .outlt { stroke:#1f3a4d; stroke-width:1.3; fill:#f2f7f9 }
    .dim { stroke:#b45309; stroke-width:1; fill:none }
    .dimt { fill:#b45309; font-size:12px }
    .warn { fill:#b45309; font-size:12px; font-weight:bold }
    .warn2 { fill:#b45309; font-size:11.5px }
    .ts { fill:#1f3a4d; font-size:11.5px }
    .t9 { fill:#1f3a4d; font-size:9.5px }
    .tb { fill:#1f3a4d; font-size:13.5px; font-weight:bold }
    .h1 { fill:#1f3a4d; font-size:17px; font-weight:bold }
    .h2 { fill:#1f3a4d; font-size:13.5px; font-weight:bold }
    .cl { stroke:#8899a6; stroke-width:0.8; stroke-dasharray:10 4 2 4; fill:none }
    .cut { stroke:#1f3a4d; stroke-width:2; stroke-dasharray:12 4 3 4; fill:none }
    .env { stroke:#7a7a7a; stroke-width:1.1; stroke-dasharray:6 4; fill:none }
    .grv { stroke:#7a7a7a; stroke-width:1.1; stroke-dasharray:5 3; fill:none }
    .ldr { stroke:#7a7a7a; stroke-width:1; fill:none }
    .tube { stroke:#1f3a4d; stroke-width:1.4; fill:none }
    .steel { fill:#dde4e9 }
    .glv { stroke:#2f7fa3; stroke-width:1.6; stroke-dasharray:9 5; fill:none }
  </style>

  <rect x="0" y="0" width="1180" height="820" fill="#ffffff"/>
  <rect x="8" y="8" width="1164" height="804" fill="none" stroke="#1f3a4d" stroke-width="1.5"/>
  <rect x="14" y="14" width="1152" height="792" fill="none" stroke="#1f3a4d" stroke-width="0.6"/>

  <text x="24" y="38" class="h1">D5 — COIL CASSETTE (QTY 1)</text>
  <text x="24" y="58" class="ts">CNC cassette plate replacing the Penguin XL rear-lid section — hangs two D1 coils in the 7 gal glycol tank (2 active stations + 1 capped spare) · all dims mm</text>

  <!-- ============================ PLAN VIEW ============================ -->
  <text x="40" y="96" class="h2">PLAN — CASSETTE PLATE, VIEW FROM ABOVE</text>

  <!-- section cut marks (through station 2) -->
  <line x1="290" y1="120" x2="290" y2="165" class="cut"/>
  <line x1="290" y1="124" x2="272" y2="124" stroke="#1f3a4d" stroke-width="1.6" marker-end="url(#arrb)"/>
  <text x="252" y="129" class="tb">A</text>
  <line x1="290" y1="375" x2="290" y2="420" class="cut"/>
  <line x1="290" y1="416" x2="272" y2="416" stroke="#1f3a4d" stroke-width="1.6" marker-end="url(#arrb)"/>
  <text x="252" y="421" class="tb">A</text>

  <!-- plate -->
  <rect x="70" y="150" width="440" height="240" rx="6" class="out"/>
  <!-- gasket groove (hidden, underside) -->
  <rect x="85" y="165" width="410" height="210" rx="6" class="grv"/>

  <!-- centerlines -->
  <line x1="56" y1="270" x2="524" y2="270" class="cl"/>
  <line x1="170" y1="232" x2="170" y2="420" class="cl"/>
  <line x1="290" y1="232" x2="290" y2="372" class="cl"/>
  <line x1="410" y1="232" x2="410" y2="420" class="cl"/>

  <!-- coil envelopes -->
  <circle cx="170" cy="270" r="42.5" class="env"/>
  <circle cx="290" cy="270" r="42.5" class="env"/>
  <circle cx="410" cy="270" r="42.5" class="env"/>

  <!-- station labels -->
  <text x="170" y="224" class="t9" text-anchor="middle">STA 1 — ACTIVE</text>
  <text x="290" y="224" class="t9" text-anchor="middle">STA 2 — ACTIVE</text>
  <text x="395" y="224" class="t9" text-anchor="middle">STA 3 — SPARE</text>

  <!-- hanger standoff rods -->
  <circle cx="130" cy="270" r="3" fill="#dde4e9" stroke="#1f3a4d" stroke-width="1"/>
  <circle cx="210" cy="270" r="3" fill="#dde4e9" stroke="#1f3a4d" stroke-width="1"/>
  <circle cx="250" cy="270" r="3" fill="#dde4e9" stroke="#1f3a4d" stroke-width="1"/>
  <circle cx="330" cy="270" r="3" fill="#dde4e9" stroke="#1f3a4d" stroke-width="1"/>
  <circle cx="370" cy="270" r="3" fill="#dde4e9" stroke="#1f3a4d" stroke-width="1"/>
  <circle cx="450" cy="270" r="3" fill="#dde4e9" stroke="#1f3a4d" stroke-width="1"/>

  <!-- station 1 penetrations -->
  <circle cx="170" cy="255" r="7" class="out" stroke-width="1.4"/>
  <circle cx="170" cy="255" r="2.5" class="tube"/>
  <circle cx="170" cy="285" r="7" class="out" stroke-width="1.4"/>
  <circle cx="170" cy="285" r="2.5" class="tube"/>
  <text x="181" y="252" class="t9">IN</text>
  <text x="181" y="292" class="t9">OUT</text>

  <!-- station 2 penetrations -->
  <circle cx="290" cy="255" r="7" class="out" stroke-width="1.4"/>
  <circle cx="290" cy="255" r="2.5" class="tube"/>
  <circle cx="290" cy="285" r="7" class="out" stroke-width="1.4"/>
  <circle cx="290" cy="285" r="2.5" class="tube"/>

  <!-- station 3 penetrations, plugged -->
  <circle cx="410" cy="255" r="7" class="out" stroke-width="1.4"/>
  <circle cx="410" cy="255" r="2.5" fill="#9aa7b0" stroke="#1f3a4d" stroke-width="1"/>
  <line x1="405" y1="250" x2="415" y2="260" class="tube"/>
  <line x1="415" y1="250" x2="405" y2="260" class="tube"/>
  <circle cx="410" cy="285" r="7" class="out" stroke-width="1.4"/>
  <circle cx="410" cy="285" r="2.5" fill="#9aa7b0" stroke="#1f3a4d" stroke-width="1"/>
  <line x1="405" y1="280" x2="415" y2="290" class="tube"/>
  <line x1="415" y1="280" x2="405" y2="290" class="tube"/>

  <!-- T4 RTD gland -->
  <circle cx="340" cy="190" r="5" class="out" stroke-width="1.4"/>
  <circle cx="340" cy="190" r="2" class="tube"/>
  <text x="316" y="194" class="t9">T4</text>

  <!-- glycol top-up port -->
  <circle cx="462" cy="196" r="25" class="out" stroke-width="1.4"/>
  <circle cx="462" cy="196" r="20" class="outlt"/>
  <line x1="452" y1="196" x2="472" y2="196" class="tube"/>

  <!-- circulator bracket + cable gland -->
  <rect x="96" y="180" width="30" height="30" class="outlt"/>
  <circle cx="111" cy="172" r="4" class="out" stroke-width="1.2"/>

  <!-- lifting handles -->
  <rect x="72" y="220" width="14" height="100" rx="4" class="outlt"/>
  <line x1="79" y1="232" x2="79" y2="308" class="tube"/>
  <rect x="494" y="220" width="14" height="100" rx="4" class="outlt"/>
  <line x1="501" y1="232" x2="501" y2="308" class="tube"/>

  <!-- balloons -->
  <g>
    <circle cx="230" cy="246" r="8" class="out" stroke-width="1.2"/>
    <text x="230" y="250" class="t9" text-anchor="middle">1</text>
    <line x1="238" y1="248" x2="283" y2="254" class="ldr"/>

    <circle cx="230" cy="298" r="8" class="out" stroke-width="1.2"/>
    <text x="230" y="302" class="t9" text-anchor="middle">2</text>
    <line x1="224" y1="292" x2="213" y2="274" class="ldr"/>

    <circle cx="372" cy="170" r="8" class="out" stroke-width="1.2"/>
    <text x="372" y="174" class="t9" text-anchor="middle">3</text>
    <line x1="366" y1="176" x2="347" y2="186" class="ldr"/>

    <circle cx="148" cy="172" r="8" class="out" stroke-width="1.2"/>
    <text x="148" y="176" class="t9" text-anchor="middle">4</text>
    <line x1="140" y1="176" x2="127" y2="186" class="ldr"/>

    <circle cx="398" cy="162" r="8" class="out" stroke-width="1.2"/>
    <text x="398" y="166" class="t9" text-anchor="middle">5</text>
    <line x1="406" y1="166" x2="440" y2="182" class="ldr"/>

    <circle cx="52" cy="232" r="8" class="out" stroke-width="1.2"/>
    <text x="52" y="236" class="t9" text-anchor="middle">6</text>
    <line x1="58" y1="237" x2="73" y2="248" class="ldr"/>

    <circle cx="56" cy="408" r="8" class="out" stroke-width="1.2"/>
    <text x="56" y="412" class="t9" text-anchor="middle">7</text>
    <line x1="62" y1="402" x2="84" y2="376" class="ldr"/>

    <circle cx="350" cy="240" r="8" class="out" stroke-width="1.2"/>
    <text x="350" y="244" class="t9" text-anchor="middle">8</text>
    <line x1="356" y1="246" x2="402" y2="254" class="ldr"/>
  </g>

  <!-- plan dimensions -->
  <line x1="163" y1="255" x2="140" y2="255" class="dim"/>
  <line x1="163" y1="285" x2="140" y2="285" class="dim"/>
  <line x1="144" y1="255" x2="144" y2="285" class="dim" marker-start="url(#arr)" marker-end="url(#arr)"/>
  <rect x="98" y="263" width="22" height="14" fill="#ffffff"/>
  <text x="101" y="274" class="dimt">30</text>

  <line x1="70" y1="412" x2="170" y2="412" class="dim" marker-start="url(#arr)" marker-end="url(#arr)"/>
  <text x="102" y="407" class="dimt">100</text>
  <line x1="170" y1="412" x2="290" y2="412" class="dim" marker-start="url(#arr)" marker-end="url(#arr)"/>
  <text x="205" y="407" class="dimt">120 (P)</text>
  <line x1="290" y1="412" x2="410" y2="412" class="dim" marker-start="url(#arr)" marker-end="url(#arr)"/>
  <text x="325" y="407" class="dimt">120 (P)</text>

  <line x1="70" y1="394" x2="70" y2="440" class="dim"/>
  <line x1="510" y1="394" x2="510" y2="440" class="dim"/>
  <line x1="70" y1="436" x2="510" y2="436" class="dim" marker-start="url(#arr)" marker-end="url(#arr)"/>
  <text x="120" y="431" class="dimt">440 nom (A-L)</text>

  <line x1="70" y1="150" x2="30" y2="150" class="dim"/>
  <line x1="70" y1="390" x2="30" y2="390" class="dim"/>
  <line x1="34" y1="150" x2="34" y2="390" class="dim" marker-start="url(#arr)" marker-end="url(#arr)"/>
  <text x="28" y="272" class="dimt" transform="rotate(-90 28 272)" text-anchor="middle">240 nom (A-W)</text>

  <!-- prominent fit note -->
  <rect x="40" y="448" width="524" height="40" fill="none" stroke="#b45309" stroke-width="1.6"/>
  <text x="52" y="464" class="warn">FIT TO PENGUIN REAR-LID APERTURE — obtain lid drawing from Penguin, VERIFY #3.</text>
  <text x="52" y="480" class="warn2">Edge dims are placeholders (A) until the aperture is confirmed — see PARAMETERS box.</text>

  <!-- plan key -->
  <text x="40" y="508" class="tb">PLAN KEY</text>
  <circle cx="50" cy="518" r="8" class="out" stroke-width="1.2"/><text x="50" y="522" class="t9" text-anchor="middle">1</text>
  <text x="66" y="522" class="ts">2 × Ø4.9 THRU per station, 30 apart — 3/16 in food-grade compression bulkhead</text>
  <text x="66" y="536" class="ts">glands (Swagelok SS-300-61 class): INLET stub + OUTLET pass-through</text>
  <circle cx="50" cy="546" r="8" class="out" stroke-width="1.2"/><text x="50" y="550" class="t9" text-anchor="middle">2</text>
  <text x="66" y="550" class="ts">coil hanger — 2 × Ø6 316 standoff rods + saddle clamp on the coil top turn</text>
  <circle cx="50" cy="560" r="8" class="out" stroke-width="1.2"/><text x="50" y="564" class="t9" text-anchor="middle">3</text>
  <text x="66" y="564" class="ts">T4 bath-RTD gland — 1/8 in compression bulkhead, near plate center</text>
  <circle cx="50" cy="574" r="8" class="out" stroke-width="1.2"/><text x="50" y="578" class="t9" text-anchor="middle">4</text>
  <text x="66" y="578" class="ts">circulator bracket (bayite BYT-7A015 class) + Ø8 cable gland</text>
  <circle cx="50" cy="588" r="8" class="out" stroke-width="1.2"/><text x="50" y="592" class="t9" text-anchor="middle">5</text>
  <text x="66" y="592" class="ts">Ø50 glycol top-up port with snap cap</text>
  <circle cx="50" cy="602" r="8" class="out" stroke-width="1.2"/><text x="50" y="606" class="t9" text-anchor="middle">6</text>
  <text x="66" y="606" class="ts">lifting handle — folded 316 strip, 100 span (2 ×, short edges), rated 15 kg</text>
  <circle cx="50" cy="616" r="8" class="out" stroke-width="1.2"/><text x="50" y="620" class="t9" text-anchor="middle">7</text>
  <text x="66" y="620" class="ts">perimeter gasket groove 6 wide × 3 deep, underside — food-grade cord</text>
  <circle cx="50" cy="630" r="8" class="out" stroke-width="1.2"/><text x="50" y="634" class="t9" text-anchor="middle">8</text>
  <text x="66" y="634" class="ts">station 3 spare — blanking plugs in both glands (shipped plugged)</text>

  <!-- notes -->
  <rect x="40" y="644" width="520" height="150" fill="none" stroke="#1f3a4d" stroke-width="1.2"/>
  <text x="52" y="664" class="tb">NOTES</text>
  <text x="52" y="682" class="ts">1. Plate: food-safe HDPE, 25 thick (alt: 316 × 5 with stiffeners — re-gasket to suit).</text>
  <text x="52" y="697" class="ts">2. Deburr and break all edges; no sharp corners at handle mounts.</text>
  <text x="52" y="712" class="ts">3. Plate and coils must NOT bear on the tank evaporator — check clearances against</text>
  <text x="52" y="727" class="ts">    the Penguin lid/tank drawing (VERIFY #3) before machining.</text>
  <text x="52" y="742" class="ts">4. Leak-check each gland at 300 kPa with its coil fitted, before first glycol fill.</text>
  <text x="52" y="757" class="ts">5. Lifting handles rated 15 kg each — plate + two coils + wetted glycol.</text>
  <text x="52" y="772" class="ts">6. Station 3 is a capped spare — shipped with blanking plugs fitted.</text>
  <text x="52" y="787" class="ts">7. Gasket: food-grade cord, seated in the 6 × 3 perimeter groove (underside).</text>

  <!-- ============================ SECTION A-A ============================ -->
  <text x="596" y="96" class="h2">SECTION A-A — THROUGH ONE COIL STATION</text>
  <text x="596" y="112" class="ts">cut at station 2 (stations identical; station 3 carries blanking plugs) — coil per DWG D1</text>

  <!-- top labels -->
  <text x="600" y="148" class="ts">INLET stub — 33 above plate; push-</text>
  <text x="600" y="162" class="ts">fit silicone drop from funnel (D2)</text>
  <line x1="758" y1="168" x2="822" y2="204" class="ldr"/>
  <text x="600" y="192" class="ts">PLATE: 25 HDPE (food-safe);</text>
  <text x="600" y="206" class="ts">alt 316 × 5 + stiffeners (note 1)</text>
  <line x1="690" y1="212" x2="700" y2="262" class="ldr"/>

  <text x="935" y="140" class="ts">OUTLET — rises alongside the coil,</text>
  <text x="935" y="154" class="ts">through its gland to the INVERTED-U;</text>
  <text x="935" y="168" class="ts">crest 13 above plate top = elev. 800,</text>
  <text x="935" y="182" class="ts">40 mm above glycol level; then turns</text>
  <text x="935" y="196" class="ts">down (out of section, beyond plate</text>
  <text x="935" y="210" class="ts">edge) to the airpot jumper (D2).</text>
  <text x="935" y="224" class="ts">U formed at fit-up (D1 note 8).</text>
  <line x1="932" y1="144" x2="898" y2="233" class="ldr"/>

  <!-- tank walls + gasket -->
  <rect x="664" y="305" width="18" height="283" class="steel" stroke="#1f3a4d" stroke-width="1.2"/>
  <rect x="1022" y="305" width="18" height="283" class="steel" stroke="#1f3a4d" stroke-width="1.2"/>
  <rect x="664" y="300" width="18" height="5" fill="#555555"/>
  <rect x="1022" y="300" width="18" height="5" fill="#555555"/>

  <!-- glycol level + floor -->
  <line x1="688" y1="348" x2="1016" y2="348" class="glv"/>
  <line x1="688" y1="572" x2="1016" y2="572" stroke="#7a7a7a" stroke-width="1.2" stroke-dasharray="10 5"/>

  <!-- plate (hatched) with clearance holes -->
  <rect x="660" y="260" width="384" height="40" fill="url(#hdpe)" stroke="#1f3a4d" stroke-width="1.8"/>
  <rect x="824" y="260" width="8" height="40" fill="#ffffff"/>
  <rect x="872" y="260" width="8" height="40" fill="#ffffff"/>

  <!-- glands -->
  <rect x="820" y="244" width="16" height="16" fill="#cfd8de" stroke="#1f3a4d" stroke-width="1.2"/>
  <rect x="819" y="300" width="18" height="13" fill="#cfd8de" stroke="#1f3a4d" stroke-width="1.2"/>
  <rect x="867" y="300" width="18" height="13" fill="#cfd8de" stroke="#1f3a4d" stroke-width="1.2"/>

  <!-- standoff rods + saddle clamps -->
  <rect x="784" y="292" width="8" height="98" class="steel" stroke="#1f3a4d" stroke-width="1"/>
  <rect x="912" y="292" width="8" height="98" class="steel" stroke="#1f3a4d" stroke-width="1"/>
  <rect x="777" y="386" width="22" height="12" class="outlt"/>
  <rect x="905" y="386" width="22" height="12" class="outlt"/>

  <!-- coil (9 turns) -->
  <g class="tube">
    <ellipse cx="852" cy="398" rx="64" ry="10"/>
    <ellipse cx="852" cy="412" rx="64" ry="10"/>
    <ellipse cx="852" cy="427" rx="64" ry="10"/>
    <ellipse cx="852" cy="441" rx="64" ry="10"/>
    <ellipse cx="852" cy="456" rx="64" ry="10"/>
    <ellipse cx="852" cy="470" rx="64" ry="10"/>
    <ellipse cx="852" cy="484" rx="64" ry="10"/>
    <ellipse cx="852" cy="499" rx="64" ry="10"/>
    <ellipse cx="852" cy="513" rx="64" ry="10"/>
  </g>

  <!-- inlet tube: stub above plate, drop to coil top turn -->
  <path d="M 828 207 L 828 368 Q 828 386 811 390" stroke="#1f3a4d" stroke-width="7.6" fill="none" stroke-linejoin="round"/>
  <path d="M 828 208 L 828 368 Q 828 386 811 390" stroke="#ffffff" stroke-width="4.4" fill="none" stroke-linejoin="round"/>

  <!-- outlet tube: from coil bottom, up alongside coil, through gland, inverted-U, turn down -->
  <path d="M 929 514 Q 944 514 944 499 L 944 352 L 876 318 L 876 260 A 17 17 0 0 1 910 252" stroke="#1f3a4d" stroke-width="7.6" fill="none" stroke-linejoin="round"/>
  <path d="M 929 514 Q 944 514 944 499 L 944 352 L 876 318 L 876 260 A 17 17 0 0 1 910 252" stroke="#ffffff" stroke-width="4.4" fill="none" stroke-linejoin="round"/>
  <line x1="900" y1="250" x2="920" y2="243" stroke="#1f3a4d" stroke-width="1.4"/>
  <line x1="900" y1="257" x2="920" y2="250" stroke="#1f3a4d" stroke-width="1.4"/>

  <!-- section dimensions -->
  <line x1="660" y1="260" x2="612" y2="260" class="dim"/>
  <line x1="660" y1="300" x2="612" y2="300" class="dim"/>
  <line x1="618" y1="260" x2="618" y2="300" class="dim" marker-start="url(#arr)" marker-end="url(#arr)"/>
  <text x="594" y="284" class="dimt">25</text>

  <line x1="708" y1="300" x2="708" y2="348" class="dim" marker-start="url(#arr)" marker-end="url(#arr)"/>
  <text x="714" y="330" class="dimt">30</text>

  <line x1="742" y1="388" x2="786" y2="388" class="dim"/>
  <line x1="746" y1="300" x2="746" y2="388" class="dim" marker-start="url(#arr)" marker-end="url(#arr)"/>
  <text x="752" y="374" class="dimt">55</text>

  <line x1="810" y1="207" x2="824" y2="207" class="dim"/>
  <line x1="806" y1="207" x2="806" y2="260" class="dim" marker-start="url(#arr)" marker-end="url(#arr)"/>
  <text x="784" y="240" class="dimt">33</text>

  <line x1="896" y1="239" x2="1006" y2="239" class="dim"/>
  <line x1="1002" y1="239" x2="1002" y2="260" class="dim" marker-start="url(#arr)" marker-end="url(#arr)"/>
  <text x="1008" y="255" class="dimt">13</text>

  <!-- right-side labels -->
  <text x="1050" y="242" class="ts">tank rim elev. 787</text>
  <line x1="1056" y1="248" x2="1033" y2="303" class="ldr"/>
  <text x="1046" y="310" class="ts">GLYCOL LEVEL</text>
  <text x="1046" y="324" class="ts">elev. ~757</text>
  <line x1="1044" y1="318" x2="1021" y2="347" class="ldr"/>
  <text x="1046" y="352" class="ts">hanger: 2 × Ø6</text>
  <text x="1046" y="366" class="ts">rods + saddle</text>
  <text x="1046" y="380" class="ts">clamps (key 2)</text>
  <line x1="1044" y1="360" x2="917" y2="320" class="ldr"/>
  <text x="1046" y="470" class="ts">coil per D1:</text>
  <text x="1046" y="484" class="ts">Ø80 CL, stack</text>
  <text x="1046" y="498" class="ts">≤100, env. Ø85</text>
  <line x1="1044" y1="478" x2="913" y2="519" class="ldr"/>

  <!-- bottom section notes -->
  <text x="688" y="592" class="ts">tank floor / evaporator below — plate &amp; coil must NOT bear on it (note 3)</text>
  <text x="600" y="616" class="ts">plate seats on food-grade gasket cord (6 × 3 groove, key 7) on the tank rim;</text>
  <text x="600" y="632" class="ts">glands bulkhead-sealed — leak-check each station 300 kPa with coil fitted (note 4)</text>

  <!-- parameters box -->
  <rect x="600" y="706" width="246" height="92" fill="none" stroke="#b45309" stroke-width="1.6"/>
  <text x="612" y="724" class="warn">PARAMETERS — MEASURE FIRST</text>
  <text x="612" y="740" class="warn2">A = aperture L × W per Penguin lid dwg</text>
  <text x="612" y="753" class="warn2">     (VERIFY #3) — plan edge dims 440 × 240</text>
  <text x="612" y="766" class="warn2">     are placeholders until A is confirmed</text>
  <text x="612" y="779" class="warn2">P = station pitch, 120 nominal — recheck</text>
  <text x="612" y="792" class="warn2">     vs tank interior &amp; evaporator clearance</text>

  <!-- title block -->
  <g>
    <rect x="856" y="706" width="308" height="92" fill="none" stroke="#1f3a4d" stroke-width="1.2"/>
    <text x="868" y="726" class="tb">ESPRESSO CHILLER — ENIGMA E4s</text>
    <line x1="856" y1="734" x2="1164" y2="734" stroke="#1f3a4d" stroke-width="0.8"/>
    <text x="868" y="750" class="ts">D5 — COIL CASSETTE (QTY 1)</text>
    <line x1="856" y1="758" x2="1164" y2="758" stroke="#1f3a4d" stroke-width="0.8"/>
    <text x="868" y="774" class="ts">DWG D5 · REV C</text>
    <line x1="1000" y1="758" x2="1000" y2="782" stroke="#1f3a4d" stroke-width="0.8"/>
    <text x="1012" y="774" class="ts">2026-08-07</text>
    <line x1="856" y1="782" x2="1164" y2="782" stroke="#1f3a4d" stroke-width="0.8"/>
    <text x="868" y="794" class="ts">mm; tol ±0.5 machined unless noted</text>
  </g>
</svg>
